# xmcd
#
# Track frame offsets:
#	150
#	18383
#	31956
#	47102
#	61066
#	77918
#	92785
#	104495
#	121866
#	132995
#	147848
#	165936
#
# Disc length: 2411 seconds
#
# Revision: 1
# Processed by: cddbd v1.5.2PL0 Copyright (c) Steve Scherf et al.
# Submitted via: audiograbber 1.83.01
#
DISCID=9709690c
DTITLE=Jerry Hanlon - Ill Be Home For Christmas
DYEAR=2006
DGENRE=Christmas
TTITLE0=I´ll Be Home For Christmas
TTITLE1=Blue Christmas
TTITLE2=A Christmas Letter
TTITLE3=What A Merry Christmas This Could Be
TTITLE4=Oh Little Town Of Bethlehem
TTITLE5=Lonestar Christmas
TTITLE6=Meet Me Under The Mistletoe
TTITLE7=Come On In And Get Out Of The Cold 
TTITLE8=Who Gonna Be Your Santa Claus This Year
TTITLE9=White Christmas
TTITLE10=Come Home To Ireland For Christmas
TTITLE11=Christmas Carol
EXTD=
EXTT0=
EXTT1=
EXTT2=
EXTT3=
EXTT4=
EXTT5=
EXTT6=
EXTT7=
EXTT8=
EXTT9=
EXTT10=
EXTT11=
PLAYORDER=
